<svg width="18" height="18" fill="none" xmlns="http://www.w3.org/2000/svg"><g clip-path="url(#a)"><path d="M13.17 15.75a.75.75 0 0 1-.345-.083L9 13.665l-3.825 2.002a.75.75 0 0 1-1.088-.795l.75-4.222-3.09-3a.75.75 0 0 1-.187-.75.75.75 0 0 1 .607-.51l4.275-.623L8.325 1.92a.75.75 0 0 1 1.35 0l1.905 3.84 4.275.622a.75.75 0 0 1 .607.51.75.75 0 0 1-.187.75l-3.09 3 .75 4.223a.75.75 0 0 1-.3.75.75.75 0 0 1-.465.135Z" fill="#69B99D"/></g><defs><clipPath id="a"><path fill="#fff" d="M0 0h18v18H0z"/></clipPath></defs></svg>